<svg xmlns="http://www.w3.org/2000/svg" viewBox="0 0 35 34"><defs><style>.cls-1{fill:#1eadff;}.cls-2{fill:none;}.cls-2,.cls-4{stroke:#1eadff;}.cls-2,.cls-3,.cls-4{stroke-miterlimit:10;}.cls-3{fill:#0000a4;stroke:#0000a4;}.cls-4{fill:#dceeff;stroke-width:2px;}</style></defs><g id="Layer_3" data-name="Layer 3"><path class="cls-1" d="M10.2,10.48a.79.79,0,0,1,.8-1H33a.79.79,0,0,1,.8,1l-2,10a1.28,1.28,0,0,1-1.2,1H13.44a1.28,1.28,0,0,1-1.2-1Z" transform="translate(0 -1)"/><path class="cls-2" d="M10.2,10.48a.79.79,0,0,1,.8-1H33a.79.79,0,0,1,.8,1l-2,10a1.28,1.28,0,0,1-1.2,1H13.44a1.28,1.28,0,0,1-1.2-1Z" transform="translate(0 -1)"/></g><g id="Layer_1" data-name="Layer 1"><rect class="cls-3" x="0.5" y="0.5" width="9" height="2" rx="1"/><rect class="cls-3" x="9.45" y="2.4" width="2.44" height="25.41" transform="translate(-2.69 1.32) rotate(-11.04)"/><rect class="cls-3" x="10.5" y="26.5" width="21" height="2" rx="1"/></g><g id="Layer_2" data-name="Layer 2"><circle class="cls-4" cx="12" cy="30" r="3"/><circle class="cls-4" cx="31" cy="30" r="3"/></g></svg>